<svg width="24" height="24" viewBox="0 0 6.35 6.35" xmlns="http://www.w3.org/2000/svg"><path style="fill:#fff;fill-opacity:1;stroke-width:.264583" d="M-.02-.043h6.35v6.35H-.02z"/><path d="M-.02-.043v6.35h6.35v-6.35ZM4.97 2.4c.055 1.221-.856 2.583-2.468 2.583a2.457 2.457 0 0 1-1.332-.39 1.748 1.748 0 0 0 1.286-.36.87.87 0 0 1-.811-.603.873.873 0 0 0 .392-.014.87.87 0 0 1-.697-.863.864.864 0 0 0 .394.109.87.87 0 0 1-.27-1.16 2.466 2.466 0 0 0 1.791.908.87.87 0 0 1 1.48-.792 1.738 1.738 0 0 0 .552-.21.871.871 0 0 1-.382.48 1.74 1.74 0 0 0 .499-.137 1.775 1.775 0 0 1-.434.449z" style="fill:#1d98f0;fill-opacity:1;stroke-width:.264583"/></svg>
